<?xml version="1.0" encoding="UTF-8" standalone="no"?>
<!DOCTYPE svg PUBLIC "-//W3C//DTD SVG 1.1//EN"
 "http://www.w3.org/Graphics/SVG/1.1/DTD/svg11.dtd">
<!-- Generated by graphviz version 2.43.0 (0)
 -->
<!-- Title: G Pages: 1 -->
<svg width="701pt" height="86pt"
 viewBox="0.00 0.00 701.20 86.20" xmlns="http://www.w3.org/2000/svg" xmlns:xlink="http://www.w3.org/1999/xlink">
<g id="graph0" class="graph" transform="scale(1 1) rotate(0) translate(21.6 64.6)">
<title>G</title>
<polygon fill="#111111" stroke="transparent" points="-21.6,21.6 -21.6,-64.6 679.6,-64.6 679.6,21.6 -21.6,21.6"/>
<!-- app.js -->
<g id="node1" class="node">
<title>app.js</title>
<path fill="none" stroke="#ff6c60" d="M46.33,-23C46.33,-23 7.67,-23 7.67,-23 3.83,-23 0,-19.17 0,-15.33 0,-15.33 0,-7.67 0,-7.67 0,-3.83 3.83,0 7.67,0 7.67,0 46.33,0 46.33,0 50.17,0 54,-3.83 54,-7.67 54,-7.67 54,-15.33 54,-15.33 54,-19.17 50.17,-23 46.33,-23"/>
<text text-anchor="middle" x="27" y="-7.8" font-family="Arial" font-size="14.00" fill="#ff6c60">app.js</text>
</g>
<!-- routes/producer.route.js -->
<g id="node2" class="node">
<title>routes/producer.route.js</title>
<path fill="none" stroke="#ff6c60" d="M240.33,-43C240.33,-43 97.67,-43 97.67,-43 93.83,-43 90,-39.17 90,-35.33 90,-35.33 90,-27.67 90,-27.67 90,-23.83 93.83,-20 97.67,-20 97.67,-20 240.33,-20 240.33,-20 244.17,-20 248,-23.83 248,-27.67 248,-27.67 248,-35.33 248,-35.33 248,-39.17 244.17,-43 240.33,-43"/>
<text text-anchor="middle" x="169" y="-27.8" font-family="Arial" font-size="14.00" fill="#ff6c60">routes/producer.route.js</text>
</g>
<!-- app.js&#45;&gt;routes/producer.route.js -->
<g id="edge1" class="edge">
<title>app.js&#45;&gt;routes/producer.route.js</title>
<path fill="none" stroke="#757575" d="M54,-15.21C61.61,-16.3 70.39,-17.56 79.62,-18.87"/>
<polygon fill="#757575" stroke="#757575" points="79.39,-22.38 89.78,-20.33 80.38,-15.45 79.39,-22.38"/>
</g>
<!-- controllers/producer/MyEventsController.js -->
<g id="node3" class="node">
<title>controllers/producer/MyEventsController.js</title>
<path fill="none" stroke="#ff6c60" d="M547.33,-43C547.33,-43 291.67,-43 291.67,-43 287.83,-43 284,-39.17 284,-35.33 284,-35.33 284,-27.67 284,-27.67 284,-23.83 287.83,-20 291.67,-20 291.67,-20 547.33,-20 547.33,-20 551.17,-20 555,-23.83 555,-27.67 555,-27.67 555,-35.33 555,-35.33 555,-39.17 551.17,-43 547.33,-43"/>
<text text-anchor="middle" x="419.5" y="-27.8" font-family="Arial" font-size="14.00" fill="#ff6c60">controllers/producer/MyEventsController.js</text>
</g>
<!-- routes/producer.route.js&#45;&gt;controllers/producer/MyEventsController.js -->
<g id="edge3" class="edge">
<title>routes/producer.route.js&#45;&gt;controllers/producer/MyEventsController.js</title>
<path fill="none" stroke="#757575" d="M248.29,-31.5C256.47,-31.5 264.96,-31.5 273.58,-31.5"/>
<polygon fill="#757575" stroke="#757575" points="273.76,-35 283.76,-31.5 273.76,-28 273.76,-35"/>
</g>
<!-- server.js -->
<g id="node4" class="node">
<title>server.js</title>
<path fill="none" stroke="#ff6c60" d="M650.33,-23C650.33,-23 598.67,-23 598.67,-23 594.83,-23 591,-19.17 591,-15.33 591,-15.33 591,-7.67 591,-7.67 591,-3.83 594.83,0 598.67,0 598.67,0 650.33,0 650.33,0 654.17,0 658,-3.83 658,-7.67 658,-7.67 658,-15.33 658,-15.33 658,-19.17 654.17,-23 650.33,-23"/>
<text text-anchor="middle" x="624.5" y="-7.8" font-family="Arial" font-size="14.00" fill="#ff6c60">server.js</text>
</g>
<!-- controllers/producer/MyEventsController.js&#45;&gt;server.js -->
<g id="edge2" class="edge">
<title>controllers/producer/MyEventsController.js&#45;&gt;server.js</title>
<path fill="none" stroke="#757575" d="M537.41,-19.98C552.85,-18.46 567.8,-16.99 580.79,-15.71"/>
<polygon fill="#757575" stroke="#757575" points="581.15,-19.19 590.76,-14.73 580.47,-12.22 581.15,-19.19"/>
</g>
<!-- server.js&#45;&gt;app.js -->
<g id="edge4" class="edge">
<title>server.js&#45;&gt;app.js</title>
<path fill="none" stroke="#757575" d="M590.75,-10.92C579.43,-10.75 566.66,-10.59 555,-10.5 348.34,-8.99 296.66,-8.83 90,-10.5 81.75,-10.57 72.88,-10.68 64.51,-10.81"/>
<polygon fill="#757575" stroke="#757575" points="64.19,-7.32 54.24,-10.98 64.3,-14.32 64.19,-7.32"/>
</g>
</g>
</svg>
